<svg width="19" height="18" viewBox="0 0 19 18" fill="none" xmlns="http://www.w3.org/2000/svg">
<path d="M5.66782 13.0524V14.6851" stroke="#6D737A" stroke-width="1.08848" stroke-linecap="round" stroke-linejoin="round"/>
<path d="M13.2872 13.0524V14.6851" stroke="#6D737A" stroke-width="1.08848" stroke-linecap="round" stroke-linejoin="round"/>
<path d="M4.57935 7.06577V3.52821C4.57935 3.16735 4.72269 2.82128 4.97786 2.56611C5.23302 2.31095 5.57909 2.1676 5.93995 2.1676C6.3008 2.1676 6.64688 2.31095 6.90204 2.56611C7.1572 2.82128 7.30055 3.16735 7.30055 3.52821" stroke="#6D737A" stroke-width="1.08848" stroke-linecap="round" stroke-linejoin="round"/>
<path d="M14.3757 6.52148H10.0218V9.78693H14.3757V6.52148Z" stroke="#6D737A" stroke-width="1.08848" stroke-linecap="round" stroke-linejoin="round"/>
<path d="M14.3757 7.0658H16.5527C16.697 7.0658 16.8354 7.12314 16.9375 7.2252C17.0396 7.32727 17.0969 7.4657 17.0969 7.61004V9.787C17.0969 10.6531 16.7529 11.4836 16.1405 12.096C15.5281 12.7084 14.6975 13.0525 13.8314 13.0525H5.12359C4.25754 13.0525 3.42696 12.7084 2.81457 12.096C2.20218 11.4836 1.85814 10.6531 1.85814 9.787V7.61004C1.85814 7.4657 1.91548 7.32727 2.01754 7.2252C2.11961 7.12314 2.25804 7.0658 2.40238 7.0658H10.0218" stroke="#6D737A" stroke-width="1.08848" stroke-linecap="round" stroke-linejoin="round"/>
</svg>
