<svg width="18" height="18" viewBox="0 0 18 18" fill="none" xmlns="http://www.w3.org/2000/svg">
<path d="M1.08847 8.15417H16.3272" stroke="#6D737A" stroke-width="1.08848" stroke-linecap="round" stroke-linejoin="round"/>
<path d="M15.2388 12.5082V14.1409C15.2388 14.2852 15.1814 14.4237 15.0793 14.5257C14.9773 14.6278 14.8389 14.6851 14.6945 14.6851H13.0618C12.9174 14.6851 12.779 14.6278 12.677 14.5257C12.5749 14.4237 12.5175 14.2852 12.5175 14.1409V12.5082" stroke="#6D737A" stroke-width="1.08848" stroke-linecap="round" stroke-linejoin="round"/>
<path d="M4.89818 12.5082V14.1409C4.89818 14.2852 4.84084 14.4237 4.73877 14.5257C4.63671 14.6278 4.49828 14.6851 4.35394 14.6851H2.72121C2.57687 14.6851 2.43844 14.6278 2.33638 14.5257C2.23431 14.4237 2.17697 14.2852 2.17697 14.1409V12.5082" stroke="#6D737A" stroke-width="1.08848" stroke-linecap="round" stroke-linejoin="round"/>
<path d="M4.35394 10.3312H5.44243" stroke="#6D737A" stroke-width="1.08848" stroke-linecap="round" stroke-linejoin="round"/>
<path d="M11.9733 10.3312H13.0618" stroke="#6D737A" stroke-width="1.08848" stroke-linecap="round" stroke-linejoin="round"/>
<path d="M15.2388 8.15428L13.2047 3.58265C13.1625 3.48593 13.093 3.40357 13.0049 3.3456C12.9167 3.28762 12.8136 3.25653 12.708 3.2561H4.70769C4.60217 3.25653 4.49904 3.28762 4.41087 3.3456C4.3227 3.40357 4.25328 3.48593 4.21107 3.58265L2.17697 8.15428V12.5082H15.2388V8.15428Z" stroke="#6D737A" stroke-width="1.08848" stroke-linecap="round" stroke-linejoin="round"/>
</svg>
