<svg width="24" height="24" viewBox="0 0 24 24" fill="none" xmlns="http://www.w3.org/2000/svg">
<path d="M12 12.7406C13.6569 12.7406 15 11.3975 15 9.7406C15 8.08375 13.6569 6.7406 12 6.7406C10.3431 6.7406 9 8.08375 9 9.7406C9 11.3975 10.3431 12.7406 12 12.7406Z" stroke="white" stroke-width="1.5" stroke-linecap="round" stroke-linejoin="round"/>
<path d="M19.5 9.7406C19.5 16.4906 12 21.7406 12 21.7406C12 21.7406 4.5 16.4906 4.5 9.7406C4.5 7.75148 5.29018 5.84382 6.6967 4.4373C8.10322 3.03078 10.0109 2.2406 12 2.2406C13.9891 2.2406 15.8968 3.03078 17.3033 4.4373C18.7098 5.84382 19.5 7.75148 19.5 9.7406V9.7406Z" stroke="white" stroke-width="1.5" stroke-linecap="round" stroke-linejoin="round"/>
</svg>
